<?xml version="1.0" encoding="utf-8"?>
<!-- Generator: Adobe Illustrator 27.5.0, SVG Export Plug-In . SVG Version: 6.00 Build 0)  -->
<svg version="1.1" xmlns="http://www.w3.org/2000/svg" xmlns:xlink="http://www.w3.org/1999/xlink" x="0px" y="0px"
	 viewBox="0 0 3710 3710" style="enable-background:new 0 0 3710 3710;" xml:space="preserve">
<g id="Background">
	<g>
		<g>
			<rect style="fill:#FFFFFF;" width="3710" height="3710"/>
		</g>
	</g>
</g>
<g id="Illustration">
	<g>
		<linearGradient id="SVGID_1_" gradientUnits="userSpaceOnUse" x1="3582.0693" y1="4059.4524" x2="1121.7549" y2="1003.8964">
			<stop  offset="0" style="stop-color:#DAE3FE"/>
			<stop  offset="1" style="stop-color:#E9EFFD"/>
		</linearGradient>
		<path style="fill:url(#SVGID_1_);" d="M2905.221,2854.451c-56.512,59.494-109.984,97.861-152.231,128.174
			c-496.603,356.318-1084.216,252.453-1209.101,227.088c-184.415-37.456-540.885-109.857-798.607-412.932
			c-389.911-458.528-329.196-1180.925-26.755-1657.79c55.321-87.227,347.545-571.355,941.487-648.994
			c359.448-46.986,778.448,47.779,1081.876,301.992C3378.814,1325.605,3333.472,2403.603,2905.221,2854.451z"/>
		<g>
			<path style="fill:#91B3FA;" d="M650.835,725.214c-2.618-11.146,13.061-18.556,22.663-10.769
				c97.498,79.061,331.758,315.814,273.376,729.557c-73.249,519.102,51.979,708.518,207.857,824.058
				c0,0-214.072-54.334-348.756-246.537C475.294,1549.62,697.392,923.401,650.835,725.214z"/>
			<path style="fill:#FFFFFF;" d="M725.032,887.351c12.197,57.789,23.068,115.755,31.469,173.981
				c8.753,58.178,15.461,116.558,20.051,175.036c4.33,58.487,7.388,117.036,7.562,175.609c0.479,58.57-1.957,117.092-4.639,175.843
				c-2.302,58.729-5.007,117.881-0.707,177.453c4.228,59.45,16.742,119.419,41.574,175.637
				c6.208,14.011,12.735,27.978,20.151,41.474c7.129,13.621,14.958,26.973,23.062,40.198c16.362,26.387,34.781,51.881,55.306,76.079
				c41.199,48.313,90.887,91.171,145.625,127.443c5.761,3.818,14.015,2.879,18.437-2.096c4.341-4.885,3.372-11.846-2.12-15.71
				l-0.039-0.027c-13.024-9.147-25.912-18.412-38.276-28.142c-6.274-4.78-12.288-9.791-18.41-14.701
				c-5.898-5.104-12.029-10.013-17.738-15.27c-23.243-20.688-44.776-42.759-64.312-66.096
				c-39.295-46.458-70.752-98.227-94.585-151.896c-11.569-26.959-20.817-54.607-27.569-82.774
				c-6.728-28.174-10.96-56.838-13.3-85.732c-4.687-57.821-2.57-116.388-0.757-175.128c1.725-58.755,2.99-117.808,1.44-176.813
				c-0.683-29.501-1.98-58.988-3.887-88.44c-0.856-14.73-2.041-29.443-3.196-44.156c-1.318-14.703-2.731-29.398-4.281-44.08
				c-6.329-58.72-14.73-117.245-25.26-175.459c-10.853-58.17-23.491-116.072-38.69-173.456c-0.435-1.641-2.326-2.666-4.225-2.29
				C725.871,884.2,724.7,885.759,725.032,887.351z"/>
		</g>
		<g>
			<g>
				<path style="fill:#BDD0FB;" d="M903.4,1967.731c-11.955,12.684-32.978,9.036-40.169-6.84
					c-39.681-87.603-129.475-345.434,18.823-642.468c125.231-250.832,169.3-398.744,184.653-467.277
					c3.247-14.492,23.107-16.416,29.101-2.829C1161.946,998.225,1336.578,1508.132,903.4,1967.731z"/>
				<path style="fill:#FFFFFF;" d="M881.685,1958.487c-0.425,0.076-0.863,0.112-1.311,0.105c-3.757-0.057-6.757-3.15-6.7-6.908
					c0.066-4.26,8.356-430.068,166.727-786.699c1.525-3.431,5.545-4.98,8.982-3.458c3.435,1.527,4.982,5.546,3.458,8.983
					c-157.219,354.035-165.494,777.151-165.559,781.383C887.232,1955.203,884.827,1957.924,881.685,1958.487z"/>
			</g>
		</g>
		<g>
			
				<linearGradient id="SVGID_00000138531249520324967470000011583269470638583701_" gradientUnits="userSpaceOnUse" x1="2863.8093" y1="-268.1653" x2="2129.1814" y2="1529.0532">
				<stop  offset="0" style="stop-color:#E1473D"/>
				<stop  offset="1" style="stop-color:#E9605A"/>
			</linearGradient>
			<path style="fill:url(#SVGID_00000138531249520324967470000011583269470638583701_);" d="M1972.784,1127.46
				c-8.827,0-16.11-7.017-16.382-15.898c-0.179-5.96-3.968-147.697,37.76-299.055c56.208-203.867,168.931-324.693,325.994-349.418
				c76.952-12.119,145.539,6.05,203.828,53.995c190.009,156.281,208.082,575.583,208.758,593.355
				c0.346,9.051-6.71,16.664-15.761,17.01c-9.118,0.215-16.664-6.713-17.01-15.761c-0.163-4.205-18.198-422.402-196.85-569.299
				c-50.735-41.712-110.568-57.508-177.867-46.901c-349.089,54.953-336.242,609.48-336.069,615.076
				c0.275,9.051-6.841,16.613-15.892,16.891C1973.123,1127.457,1972.953,1127.46,1972.784,1127.46z"/>
			
				<linearGradient id="SVGID_00000156568512565553420550000016134968915354202771_" gradientUnits="userSpaceOnUse" x1="2726.3364" y1="1327.2744" x2="1204.6074" y2="3557.3933">
				<stop  offset="0" style="stop-color:#FF928E"/>
				<stop  offset="1" style="stop-color:#FE7062"/>
			</linearGradient>
			<path style="fill:url(#SVGID_00000156568512565553420550000016134968915354202771_);" d="M1282.068,2922.871l281.765-1943.056
				l1058.483-17.797l341.164,2068.846H1373.723C1317.173,3030.864,1273.816,2979.778,1282.068,2922.871z"/>
			
				<linearGradient id="SVGID_00000044158755126208422470000014058463710916374667_" gradientUnits="userSpaceOnUse" x1="4301.2388" y1="1926.1678" x2="2940.2429" y2="1994.2174">
				<stop  offset="0" style="stop-color:#FF928E"/>
				<stop  offset="1" style="stop-color:#FE7062"/>
			</linearGradient>
			<path style="fill:url(#SVGID_00000044158755126208422470000014058463710916374667_);" d="M2827.889,979.815l-205.573-17.797
				l341.164,2068.846h204.084c41.377,0,72.301-38.681,63.866-79.885L2827.889,979.815z"/>
			
				<linearGradient id="SVGID_00000071555638364779065110000012183307433310581898_" gradientUnits="userSpaceOnUse" x1="2667.3672" y1="-348.4584" x2="1932.7369" y2="1448.765">
				<stop  offset="0" style="stop-color:#E1473D"/>
				<stop  offset="1" style="stop-color:#E9605A"/>
			</linearGradient>
			<path style="fill:url(#SVGID_00000071555638364779065110000012183307433310581898_);" d="M2488.901,1123.012
				c-8.769,0-16.036-6.937-16.376-15.773c-0.163-4.205-18.198-422.402-196.846-569.299
				c-50.731-41.712-110.565-57.508-177.867-46.901c-348.816,54.911-336.242,609.484-336.073,615.079
				c0.269,9.051-6.844,16.613-15.895,16.885c-9.15,0.378-16.609-6.841-16.888-15.889c-0.179-5.96-3.968-147.697,37.763-299.055
				c56.205-203.867,168.932-324.693,325.994-349.418c76.962-12.116,145.539,6.05,203.829,53.995
				c190.005,156.281,208.078,575.583,208.754,593.355c0.346,9.051-6.71,16.664-15.76,17.01
				C2489.324,1123.005,2489.109,1123.012,2488.901,1123.012z"/>
		</g>
		<g>
			
				<linearGradient id="SVGID_00000031923767050828076430000008355377462394105755_" gradientUnits="userSpaceOnUse" x1="1409.9854" y1="3020.887" x2="1310.0773" y2="63.5578">
				<stop  offset="0" style="stop-color:#09005D"/>
				<stop  offset="1" style="stop-color:#1A0F91"/>
			</linearGradient>
			<path style="fill:url(#SVGID_00000031923767050828076430000008355377462394105755_);" d="M707.089,1462.859
				c0-70.548,57.19-127.738,127.738-127.738h1086.288c59.93,0,109.347,46.965,112.394,106.817l80.184,1574.915
				c2.385,46.836-34.485,86.343-81.374,87.196l-1245.023,22.628c-44.058,0.801-80.206-34.695-80.206-78.761V1462.859z"/>
			<path style="fill:#91B3FA;" d="M969.258,3099.902c0,0-0.026,0-0.039,0l-139.311-1.801c-46.583-0.604-84.48-38.995-84.48-85.579
				v-210.333c0-1.644,1.332-2.974,2.974-2.974c1.643,0,2.974,1.33,2.974,2.974v210.333c0,43.346,35.263,79.067,78.609,79.631
				l139.309,1.801c1.643,0.02,2.957,1.371,2.936,3.012C972.209,3098.596,970.882,3099.902,969.258,3099.902z"/>
			<path style="fill:#91B3FA;" d="M748.402,2740.011c-1.642,0-2.974-1.33-2.974-2.974v-34.063c0-1.644,1.332-2.974,2.974-2.974
				c1.643,0,2.974,1.33,2.974,2.974v34.063C751.377,2738.681,750.045,2740.011,748.402,2740.011z"/>
			<g>
				
					<linearGradient id="SVGID_00000132773592087431609060000004575160785634767770_" gradientUnits="userSpaceOnUse" x1="1831.802" y1="1182.001" x2="724.344" y2="3835.811">
					<stop  offset="0" style="stop-color:#4F52FF"/>
					<stop  offset="1" style="stop-color:#4042E2"/>
				</linearGradient>
				<path style="fill:url(#SVGID_00000132773592087431609060000004575160785634767770_);" d="M796.084,1359.362
					c-0.133-22.571,19.717-40.04,42.084-37.007c148.342,20.117,658.453,82.334,1080.207,49.958
					c19.234-1.477,35.925,13.096,36.949,32.359l84.076,1581.935c1.153,21.691-15.411,40.239-37.094,41.523
					c-177.381,10.497-907.895,51.077-1168.458,23.785c-15.859-1.661-27.896-15.013-27.99-30.958L796.084,1359.362z"/>
				<path style="fill:#BDD0FB;" d="M813.557,1399.004c-0.128-21.721,18.975-38.533,40.499-35.614
					c142.756,19.359,633.659,79.234,1039.531,48.077c18.509-1.421,34.572,12.603,35.557,31.141l80.911,1522.366
					c1.11,20.874-14.83,38.725-35.697,39.959c-170.702,10.102-873.708,49.153-1124.459,22.889
					c-15.261-1.598-26.846-14.447-26.936-29.792L813.557,1399.004z"/>
				<path style="opacity:0.52;fill:#FFFFFF;" d="M945.71,1516.377l15.162,326.38c0.504,10.855,9.273,19.486,20.136,19.793
					c60.446,1.705,248.798,6.299,355.148,0.754c12.03-0.627,21.547-10.359,21.946-22.399c2.028-61.208,6.466-239.36-7.482-313.833
					c-2.253-12.03-12.593-20.845-24.825-21.272l-357.276-12.495C955.635,1492.855,945.111,1503.5,945.71,1516.377z"/>
				<g style="opacity:0.6;">
					<path style="fill:#FFFFFF;" d="M1847.762,1544.788c2.491,0,4.47-2.037,4.397-4.527l-0.375-12.844
						c-0.073-2.49-2.17-4.563-4.661-4.608l-408.177-7.274c-2.491-0.044-3.851,1.842-3.024,4.191l7.322,20.79
						c0.828,2.35,3.543,4.272,6.034,4.272H1847.762z"/>
				</g>
				<g style="opacity:0.6;">
					<path style="fill:#FFFFFF;" d="M1438.947,1596.052c-2.491-0.044-3.851,1.842-3.024,4.191l7.322,20.79
						c0.828,2.35,3.543,4.272,6.034,4.272h398.484c2.491,0,4.47-2.037,4.397-4.527l-0.375-12.844
						c-0.073-2.49-2.17-4.564-4.661-4.608L1438.947,1596.052z"/>
				</g>
				<g style="opacity:0.6;">
					<path style="fill:#FFFFFF;" d="M1438.947,1680.264c-2.491-0.044-3.851,1.842-3.024,4.191l7.322,20.79
						c0.828,2.35,3.543,4.272,6.034,4.272h398.484c2.491,0,4.47-2.037,4.397-4.527l-0.375-12.844
						c-0.073-2.49-2.17-4.563-4.661-4.608L1438.947,1680.264z"/>
				</g>
				<g style="opacity:0.6;">
					<path style="fill:#FFFFFF;" d="M1885.817,1965.053c2.491,0,4.395-2.034,4.231-4.519l-0.849-12.859
						c-0.164-2.486-2.336-4.535-4.827-4.555l-934.238-7.364c-2.491-0.02-3.259,1.559-1.708,3.507l17.714,22.247
						c1.552,1.949,4.859,3.543,7.35,3.543H1885.817z"/>
				</g>
				<g style="opacity:0.6;">
					<path style="fill:#FFFFFF;" d="M950.133,1996.6c-2.491-0.02-3.259,1.559-1.708,3.507l17.714,22.247
						c1.552,1.949,4.859,3.543,7.35,3.543h912.327c2.491,0,4.395-2.034,4.231-4.519l-0.849-12.859
						c-0.164-2.486-2.336-4.535-4.827-4.555L950.133,1996.6z"/>
				</g>
				<path style="opacity:0.6;fill:#FFFFFF;" d="M954.189,2098.254c22.068-1.691,63.395-2.475,86.144-2.793
					c9.64-0.135,18.094,6.395,20.354,15.767c4.391,18.202,10.447,49.806,9.685,83.292c-0.229,10.029-8.443,18.034-18.474,17.926
					l-83.949-0.904c-10.324-0.111-18.895-8.003-19.855-18.282l-7.381-78.975C939.95,2106.115,946.008,2098.881,954.189,2098.254z"/>
				<g style="opacity:0.6;">
					<path style="fill:#FFFFFF;" d="M1101.241,2130.341c-2.489-0.104-4.222,1.826-3.852,4.29l4.468,29.752
						c0.37,2.463,2.711,4.479,5.202,4.479h220.282c2.491,0,4.504-2.038,4.473-4.529l-0.247-19.84
						c-0.031-2.491-2.093-4.614-4.582-4.718L1101.241,2130.341z"/>
				</g>
				<path style="opacity:0.6;fill:#FFFFFF;" d="M1411.531,2098.254c22.068-1.691,63.395-2.475,86.144-2.793
					c9.64-0.135,18.094,6.395,20.354,15.767c4.391,18.202,10.447,49.806,9.684,83.292c-0.228,10.029-8.443,18.034-18.474,17.926
					l-83.949-0.904c-10.323-0.111-18.895-8.003-19.855-18.282l-7.38-78.975C1397.292,2106.115,1403.35,2098.881,1411.531,2098.254z"
					/>
				<g style="opacity:0.6;">
					<path style="fill:#FFFFFF;" d="M1558.584,2130.341c-2.489-0.104-4.222,1.826-3.852,4.29l4.469,29.752
						c0.37,2.463,2.711,4.479,5.202,4.479h220.282c2.491,0,4.504-2.038,4.473-4.529l-0.247-19.84
						c-0.031-2.491-2.093-4.614-4.581-4.718L1558.584,2130.341z"/>
				</g>
				<g>
					<g style="opacity:0.6;">
						<path style="fill:#FFFFFF;" d="M929.014,2368.433c2.876,8.504,12.781,14.403,24.058,14.328l919.032-6.111
							c10.396-0.069,18.714-6.756,18.486-14.862c-0.221-7.881-8.452-14.19-18.56-14.227l-919.056-3.269
							C936.751,2344.235,924.876,2356.198,929.014,2368.433z"/>
					</g>
					<g style="opacity:0.6;">
						<path style="fill:#FFFFFF;" d="M929.014,2534.459c2.876,8.504,12.781,14.403,24.058,14.329l919.032-6.111
							c10.396-0.069,18.714-6.755,18.486-14.862c-0.221-7.881-8.452-14.19-18.56-14.226l-919.056-3.269
							C936.751,2510.261,924.876,2522.225,929.014,2534.459z"/>
					</g>
					<g style="opacity:0.6;">
						<path style="fill:#FFFFFF;" d="M929.014,2700.485c2.876,8.504,12.781,14.404,24.058,14.329l919.032-6.111
							c10.396-0.069,18.714-6.755,18.486-14.862c-0.221-7.881-8.452-14.19-18.56-14.226l-919.056-3.269
							C936.751,2676.288,924.876,2688.251,929.014,2700.485z"/>
					</g>
					<g style="opacity:0.6;">
						<path style="fill:#FFFFFF;" d="M929.014,2866.511L929.014,2866.511c2.876,8.504,12.781,14.404,24.058,14.329l919.032-6.111
							c10.396-0.07,18.714-6.756,18.486-14.862c-0.221-7.881-8.452-14.19-18.56-14.226l-919.056-3.269
							C936.751,2842.314,924.876,2854.277,929.014,2866.511z"/>
					</g>
				</g>
				<g>
					<path style="fill:#91B3FA;" d="M1308.552,1583.344c-1.8-2.213-4.624-3.132-7.619-3.069l-272.679,5.72l-6.888-21.88
						c-0.957-3.048-3.824-5-7.066-4.915l-37.438,0.984c-4.015,0.105-7.266,2.897-7.266,6.904c0,4.006,3.251,6.636,7.266,6.541
						l31.993-0.756l57.891,184.988c0.975,3.114,3.898,5.255,7.211,5.3l191.392,2.569c4.492,0.06,8.138-2.759,8.138-7.006
						c0-4.246-3.647-7.154-8.138-7.203l-185.808-2.003l-14.913-48.031l204.187,0.309c4.181,0.006,7.866-2.73,9.037-6.524
						l32.226-104.199C1310.921,1588.357,1310.354,1585.558,1308.552,1583.344z"/>
					<path style="fill:#91B3FA;" d="M1101.957,1774.57c-15.748-0.245-28.488,12.012-28.488,27.321s12.74,28.098,28.488,28.511
						c15.842,0.416,28.803-11.835,28.803-27.314C1130.759,1787.61,1117.799,1774.817,1101.957,1774.57z M1101.957,1815.514
						c-7.36-0.172-13.333-6.141-13.333-13.306c0-7.165,5.973-12.884,13.333-12.749c7.381,0.136,13.402,6.106,13.402,13.308
						C1115.359,1809.968,1109.338,1815.687,1101.957,1815.514z"/>
					<path style="fill:#91B3FA;" d="M1229.541,1776.554c-16.528-0.257-29.898,12.293-29.898,27.975
						c0,15.682,13.37,28.791,29.898,29.225c16.63,0.437,30.236-12.108,30.236-27.968S1246.171,1776.812,1229.541,1776.554z
						 M1229.541,1818.501c-7.725-0.181-13.994-6.299-13.994-13.639c0-7.34,6.269-13.197,13.994-13.054
						c7.747,0.143,14.068,6.262,14.068,13.641C1243.609,1812.827,1237.288,1818.682,1229.541,1818.501z"/>
				</g>
			</g>
			
				<linearGradient id="SVGID_00000008851716712995724450000000621409707839269311_" gradientUnits="userSpaceOnUse" x1="1566.5396" y1="958.242" x2="1066.8854" y2="1615.5254">
				<stop  offset="0" style="stop-color:#09005D"/>
				<stop  offset="1" style="stop-color:#1A0F91"/>
			</linearGradient>
			<path style="fill:url(#SVGID_00000008851716712995724450000000621409707839269311_);" d="M1445.344,1120.39
				c-39.238-27.297-73.357-26.757-97.374-19.67c-21.909,6.465-36.11,27.617-34.026,50.366l10.358,113.054l123.253,10.938
				C1447.554,1275.078,1522.296,1173.924,1445.344,1120.39z M1391.141,1211.597c-16.973,0-30.733-13.759-30.733-30.732
				s13.759-30.733,30.733-30.733c16.974,0,30.733,13.76,30.733,30.733S1408.115,1211.597,1391.141,1211.597z"/>
			<path style="fill:#91B3FA;" d="M1336.613,1216.583c-1.52,0-2.817-1.159-2.958-2.704l-1.65-18.005
				c-0.151-1.635,1.055-3.082,2.69-3.233c1.668-0.156,3.084,1.055,3.233,2.693l1.65,18.004c0.151,1.635-1.054,3.081-2.689,3.233
				C1336.795,1216.58,1336.703,1216.583,1336.613,1216.583z M1333.381,1181.299c-1.521,0-2.817-1.159-2.958-2.704l-1.253-13.668
				c-1.987-21.67,11.65-41.847,32.421-47.978c14.711-4.342,29.868-4.964,45.046-1.85c1.609,0.328,2.646,1.902,2.316,3.511
				c-0.33,1.606-1.889,2.634-3.51,2.315c-14.219-2.91-28.404-2.332-42.169,1.728c-18.055,5.33-29.908,22.881-28.182,41.734
				l1.253,13.668c0.151,1.635-1.054,3.082-2.689,3.233C1333.563,1181.297,1333.471,1181.299,1333.381,1181.299z"/>
			
				<linearGradient id="SVGID_00000115479629856242898520000014130210286303932562_" gradientUnits="userSpaceOnUse" x1="1621.3477" y1="999.9048" x2="1121.6932" y2="1657.1886">
				<stop  offset="0" style="stop-color:#09005D"/>
				<stop  offset="1" style="stop-color:#1A0F91"/>
			</linearGradient>
			<path style="fill:url(#SVGID_00000115479629856242898520000014130210286303932562_);" d="M1156.084,1337.201v-56.84
				c0-19.621,16.262-35.336,35.872-34.665l391.888,13.427c17.392,0.596,31.476,14.324,32.518,31.695l3.275,54.615L1156.084,1337.201
				z"/>
			<path style="fill:#91B3FA;" d="M1302.209,1267.114h-16.853c-1.643,0-2.974-1.33-2.974-2.974c0-1.644,1.332-2.974,2.974-2.974
				h16.853c1.642,0,2.974,1.33,2.974,2.974C1305.183,1265.783,1303.852,1267.114,1302.209,1267.114z"/>
			<path style="fill:#91B3FA;" d="M1177.295,1319.353c-1.642,0-2.974-1.33-2.974-2.974v-22.994c0-17.766,14.454-32.219,32.22-32.219
				h61.96c1.642,0,2.974,1.33,2.974,2.974c0,1.644-1.332,2.974-2.974,2.974h-61.96c-14.486,0-26.272,11.786-26.272,26.271v22.994
				C1180.269,1318.023,1178.938,1319.353,1177.295,1319.353z"/>
			
				<linearGradient id="SVGID_00000123438561166600197270000010673389641674402740_" gradientUnits="userSpaceOnUse" x1="1558.3826" y1="1040.1101" x2="1213.3817" y2="1673.6017">
				<stop  offset="0" style="stop-color:#4F52FF"/>
				<stop  offset="1" style="stop-color:#4042E2"/>
			</linearGradient>
			<path style="fill:url(#SVGID_00000123438561166600197270000010673389641674402740_);" d="M996.406,1351.554
				c0.946-19.683,17.179-35.155,36.885-35.156l685.29-0.019c24.641-0.001,45.707,17.732,49.911,42.012l0.58,3.351
				c4.604,26.595-15.872,50.919-42.862,50.919h-703.068c-16.152,0-29.024-13.505-28.249-29.639L996.406,1351.554z"/>
		</g>
		<g>
			<g>
				<g style="opacity:0.3;">
					<path style="fill:#BDD0FB;" d="M2447.252,2317.554c-5.079,0-9.443-3.839-9.982-9.001c-1.184-11.29-1.893-22.8-2.11-34.207
						c-0.106-5.55,4.306-10.135,9.855-10.241c0.067,0,0.131,0,0.196,0c5.46,0,9.94,4.373,10.044,9.857
						c0.206,10.838,0.881,21.771,2.004,32.496c0.579,5.519-3.427,10.465-8.948,11.042
						C2447.955,2317.539,2447.602,2317.554,2447.252,2317.554z M2447.9,2230.008c-0.393,0-0.791-0.023-1.191-0.071
						c-5.511-0.652-9.453-5.649-8.801-11.16c1.341-11.321,3.178-22.697,5.462-33.81c1.117-5.437,6.407-8.927,11.867-7.824
						c5.437,1.119,8.936,6.434,7.82,11.867c-2.171,10.564-3.916,21.37-5.188,32.13
						C2457.264,2226.251,2452.922,2230.008,2447.9,2230.008z M2467.808,2144.781c-1.119,0-2.257-0.188-3.372-0.585
						c-5.227-1.865-7.957-7.612-6.095-12.84c3.816-10.717,8.148-21.402,12.874-31.758c2.308-5.048,8.269-7.266,13.315-4.97
						c5.048,2.305,7.274,8.268,4.97,13.315c-4.489,9.833-8.601,19.977-12.226,30.156
						C2475.81,2142.213,2471.938,2144.781,2467.808,2144.781z M2506.282,2066.129c-1.849,0-3.719-0.51-5.394-1.578
						c-4.679-2.983-6.053-9.198-3.07-13.876c6.124-9.598,12.735-19.047,19.649-28.084c3.374-4.4,9.678-5.24,14.089-1.872
						c4.406,3.372,5.245,9.68,1.872,14.089c-6.567,8.581-12.848,17.555-18.664,26.678
						C2512.847,2064.488,2509.601,2066.129,2506.282,2066.129z M2561.328,1998.033c-2.593,0-5.184-0.997-7.149-2.987
						c-3.902-3.949-3.863-10.312,0.086-14.211c8.079-7.98,16.615-15.729,25.369-23.023c4.261-3.557,10.599-2.983,14.154,1.284
						c3.552,4.263,2.977,10.599-1.286,14.155c-8.322,6.932-16.434,14.297-24.113,21.881
						C2566.431,1997.067,2563.879,1998.033,2561.328,1998.033z M2630.062,1943.814c-3.359,0-6.64-1.68-8.544-4.742
						c-2.93-4.715-1.486-10.909,3.227-13.842c9.659-6.006,19.698-11.674,29.836-16.84c4.948-2.52,10.997-0.554,13.518,4.393
						c2.52,4.942,0.554,10.995-4.391,13.516c-9.633,4.911-19.17,10.292-28.348,16
						C2633.706,1943.327,2631.873,1943.814,2630.062,1943.814z M2998.311,1919.887c-1.392,0-2.802-0.29-4.151-0.903
						c-9.83-4.467-19.987-8.565-30.189-12.177c-5.231-1.853-7.971-7.596-6.118-12.825c1.851-5.233,7.594-7.973,12.827-6.12
						c10.744,3.804,21.443,8.118,31.795,12.821c5.054,2.297,7.288,8.255,4.991,13.307
						C3005.783,1917.697,3002.13,1919.887,2998.311,1919.887z M2709.051,1906.199c-4.169,0-8.065-2.614-9.5-6.776
						c-1.81-5.249,0.978-10.968,6.224-12.777c10.754-3.709,21.801-6.995,32.833-9.767c5.388-1.327,10.844,1.912,12.197,7.297
						c1.352,5.382-1.916,10.842-7.299,12.197c-10.477,2.63-20.967,5.751-31.179,9.272
						C2711.241,1906.018,2710.136,1906.199,2709.051,1906.199z M2915.035,1892.888c-0.663,0-1.337-0.063-2.012-0.2
						c-10.587-2.155-21.407-3.878-32.16-5.13c-5.513-0.644-9.462-5.633-8.821-11.145c0.644-5.512,5.629-9.488,11.145-8.821
						c11.313,1.319,22.699,3.132,33.84,5.397c5.439,1.107,8.952,6.414,7.845,11.851
						C2923.905,1889.602,2919.714,1892.888,2915.035,1892.888z M2794.462,1887.172c-5.072,0-9.431-3.828-9.981-8.982
						c-0.589-5.519,3.408-10.469,8.927-11.062c11.3-1.205,22.803-1.939,34.191-2.175c0.07-0.004,0.143-0.004,0.214-0.004
						c5.452,0,9.927,4.361,10.043,9.838c0.116,5.551-4.287,10.143-9.837,10.257c-10.817,0.228-21.744,0.926-32.48,2.073
						C2795.179,1887.153,2794.818,1887.172,2794.462,1887.172z"/>
					<path style="fill:#BDD0FB;" d="M3059.651,1954.773c-1.979,0-3.979-0.581-5.727-1.798c-4.253-2.96-8.64-5.877-13.037-8.68
						c-4.681-2.979-6.061-9.193-3.079-13.873c2.979-4.683,9.195-6.068,13.875-3.077c4.626,2.944,9.239,6.014,13.716,9.127
						c4.555,3.168,5.682,9.433,2.514,13.987C3065.959,1953.27,3062.831,1954.773,3059.651,1954.773z"/>
				</g>
				<g style="opacity:0.3;">
					<path style="fill:#BDD0FB;" d="M3222.91,2214.039c-4.85,0-9.119-3.517-9.912-8.46c-0.818-5.115-1.759-10.301-2.795-15.408
						c-1.103-5.441,2.412-10.744,7.851-11.847c5.462-1.107,10.744,2.414,11.847,7.851c1.089,5.377,2.081,10.838,2.944,16.224
						c0.877,5.48-2.854,10.634-8.334,11.513C3223.973,2213.999,3223.438,2214.039,3222.91,2214.039z"/>
					<path style="fill:#BDD0FB;" d="M2836.881,2667.653c-4.624,0-9.266-0.079-13.923-0.236c-5.547-0.188-9.893-4.836-9.706-10.383
						s4.862-9.912,10.382-9.708c10.75,0.361,21.49,0.287,32.044-0.231c5.549-0.263,10.258,4,10.531,9.543
						c0.272,5.547-4.002,10.261-9.545,10.532C2850.134,2667.491,2843.479,2667.653,2836.881,2667.653z M2770.177,2662.012
						c-0.561,0-1.132-0.048-1.706-0.146c-11.052-1.888-22.148-4.267-32.976-7.07c-5.372-1.39-8.601-6.873-7.211-12.244
						c1.392-5.374,6.885-8.616,12.248-7.211c10.285,2.661,20.825,4.918,31.328,6.717c5.47,0.934,9.146,6.128,8.212,11.596
						C2779.233,2658.553,2774.984,2662.012,2770.177,2662.012z M2909.176,2660.92c-4.738,0-8.956-3.364-9.865-8.189
						c-1.027-5.457,2.563-10.709,8.018-11.738c10.434-1.962,20.925-4.4,31.186-7.25c5.351-1.476,10.887,1.649,12.372,6.996
						c1.484,5.35-1.649,10.889-6.997,12.373c-10.805,2.999-21.856,5.566-32.843,7.635
						C2910.418,2660.865,2909.792,2660.92,2909.176,2660.92z M2687.351,2638.227c-1.276,0-2.571-0.248-3.823-0.762
						c-10.358-4.267-20.658-9.029-30.614-14.151c-4.934-2.54-6.875-8.597-4.336-13.531c2.54-4.938,8.595-6.882,13.533-4.338
						c9.453,4.864,19.233,9.386,29.071,13.437c5.132,2.112,7.578,7.989,5.464,13.119
						C2695.049,2635.879,2691.302,2638.227,2687.351,2638.227z M2991.506,2635.718c-3.886,0-7.588-2.269-9.229-6.065
						c-2.202-5.095,0.143-11.011,5.239-13.213c9.741-4.208,19.439-8.895,28.827-13.928c4.891-2.622,10.983-0.785,13.605,4.11
						c2.621,4.891,0.781,10.979-4.11,13.602c-9.883,5.3-20.093,10.234-30.35,14.666
						C2994.191,2635.451,2992.837,2635.718,2991.506,2635.718z M3066.315,2593.06c-3.107,0-6.171-1.437-8.138-4.141
						c-3.262-4.491-2.267-10.776,2.224-14.038c8.611-6.258,17.059-12.95,25.108-19.891c4.198-3.631,10.542-3.164,14.173,1.044
						c3.625,4.204,3.156,10.548-1.046,14.175c-8.471,7.305-17.36,14.348-26.422,20.931
						C3070.43,2592.436,3068.364,2593.06,3066.315,2593.06z M3130.043,2535.107c-2.363,0-4.734-0.828-6.646-2.516
						c-4.161-3.67-4.558-10.022-0.885-14.183c7.05-7.988,13.839-16.357,20.179-24.884c3.311-4.451,9.602-5.382,14.061-2.065
						c4.452,3.313,5.378,9.606,2.065,14.062c-6.673,8.969-13.818,17.782-21.235,26.187
						C3135.596,2533.957,3132.827,2535.107,3130.043,2535.107z M3179.613,2464.64c-1.637,0-3.296-0.4-4.833-1.244
						c-4.864-2.673-6.638-8.781-3.965-13.645c5.13-9.331,9.918-18.984,14.232-28.696c2.253-5.072,8.198-7.356,13.262-5.107
						c5.074,2.253,7.358,8.193,5.105,13.264c-4.543,10.23-9.586,20.397-14.986,30.219
						C3186.598,2462.76,3183.16,2464.64,3179.613,2464.64z M3212.517,2384.979c-0.921,0-1.857-0.129-2.785-0.397
						c-5.333-1.535-8.412-7.105-6.875-12.436c2.938-10.207,5.48-20.672,7.553-31.114c1.081-5.445,6.387-8.974,11.814-7.898
						c5.444,1.08,8.981,6.371,7.9,11.816c-2.183,10.991-4.858,22.01-7.953,32.754
						C3220.902,2382.11,3216.882,2384.979,3212.517,2384.979z M3227.106,2300.094c-0.206,0-0.414-0.008-0.622-0.02
						c-5.539-0.338-9.757-5.103-9.417-10.642c0.477-7.82,0.718-15.745,0.718-23.565c0-2.83-0.033-5.657-0.094-8.471
						c-0.12-5.551,4.281-10.147,9.829-10.265c5.616-0.231,10.144,4.279,10.265,9.826c0.065,2.964,0.098,5.931,0.098,8.911
						c0,8.224-0.255,16.566-0.757,24.79C3236.802,2295.988,3232.376,2300.094,3227.106,2300.094z"/>
					<path style="fill:#BDD0FB;" d="M2611.602,2596.644c-1.998,0-4.014-0.593-5.771-1.825c-4.451-3.128-8.921-6.41-13.283-9.755
						c-4.406-3.376-5.241-9.684-1.865-14.089c3.378-4.404,9.68-5.245,14.089-1.865c4.145,3.176,8.391,6.293,12.616,9.264
						c4.54,3.188,5.635,9.456,2.444,13.998C2617.875,2595.156,2614.762,2596.644,2611.602,2596.644z"/>
				</g>
				<g>
					<path style="fill:#BDD0FB;" d="M2625.162,2480.081c1.267,1.552,3.379,2.13,5.26,1.439l53.653-19.731
						c21.151,16.289,45.052,29.324,71.034,38.254l13.086,55.61c0.459,1.951,2.105,3.395,4.099,3.597l68.221,6.911
						c1.994,0.201,3.896-0.884,4.737-2.702l23.972-51.856c27.245-3.539,53.274-11.515,77.262-23.233l48.607,30.089
						c1.704,1.054,3.889,0.912,5.441-0.354l53.126-43.353c1.553-1.268,2.131-3.38,1.439-5.26l-19.73-53.653
						c16.29-21.151,29.323-45.052,38.253-71.034l55.611-13.086c1.95-0.458,3.395-2.104,3.597-4.098l6.911-68.222
						c0.202-1.993-0.883-3.896-2.702-4.736l-51.856-23.972c-3.538-27.245-11.513-53.274-23.232-77.261l30.09-48.608
						c1.054-1.703,0.912-3.889-0.355-5.441l-43.353-53.125c-1.267-1.554-3.379-2.13-5.26-1.439l-53.653,19.731
						c-21.15-16.29-45.052-29.324-71.033-38.254l-13.086-55.611c-0.459-1.95-2.104-3.395-4.098-3.597l-68.222-6.91
						c-1.994-0.203-3.895,0.883-4.736,2.702l-23.972,51.857c-27.245,3.537-53.274,11.514-77.262,23.232l-48.606-30.089
						c-1.704-1.056-3.89-0.912-5.442,0.354l-53.126,43.353c-1.552,1.267-2.13,3.379-1.439,5.26l19.73,53.653
						c-16.29,21.151-29.323,45.052-38.253,71.034l-55.611,13.086c-1.95,0.458-3.395,2.105-3.596,4.099l-6.911,68.22
						c-0.202,1.994,0.883,3.896,2.702,4.737l51.857,23.972c3.539,27.244,11.514,53.273,23.231,77.261l-30.088,48.607
						c-1.055,1.704-0.913,3.888,0.354,5.442L2625.162,2480.081z"/>
					
						<linearGradient id="SVGID_00000026857285988020884440000000807885717348514196_" gradientUnits="userSpaceOnUse" x1="2767.8157" y1="2263.1633" x2="2905.6768" y2="2263.1633">
						<stop  offset="0" style="stop-color:#DAE3FE"/>
						<stop  offset="1" style="stop-color:#E9EFFD"/>
					</linearGradient>
					<path style="fill:url(#SVGID_00000026857285988020884440000000807885717348514196_);" d="M2836.701,2332.099
						c-33.599,0-63.101-24.672-68.143-58.879c-5.541-37.602,20.54-72.696,58.139-78.239c18.216-2.689,36.385,1.884,51.159,12.864
						c14.778,10.979,24.396,27.058,27.078,45.273c5.541,37.603-20.54,72.697-58.139,78.24
						C2843.406,2331.855,2840.032,2332.099,2836.701,2332.099z M2836.858,2210.313c-2.595,0-5.203,0.188-7.818,0.573
						c-28.827,4.248-48.824,31.161-44.576,59.986c4.249,28.829,31.153,48.837,59.988,44.578
						c28.827-4.247,48.823-31.161,44.576-59.986c-2.059-13.967-9.431-26.293-20.762-34.714
						C2859.057,2213.909,2848.126,2210.313,2836.858,2210.313z"/>
					
						<linearGradient id="SVGID_00000094592195599907877850000003214351358094295685_" gradientUnits="userSpaceOnUse" x1="2668.3159" y1="2262.1597" x2="3007.2925" y2="2262.1597">
						<stop  offset="0" style="stop-color:#DAE3FE"/>
						<stop  offset="1" style="stop-color:#E9EFFD"/>
					</linearGradient>
					<path style="fill:url(#SVGID_00000094592195599907877850000003214351358094295685_);" d="M2838.11,2431.65
						c-5.771,0-11.574-0.29-17.394-0.879l0,0c-1.832-0.185-3.661-0.4-5.486-0.644c-8.999-1.205-17.888-3.125-26.531-5.727
						c-0.118-0.035-0.236-0.071-0.353-0.106c-0.334-0.102-0.667-0.204-1.001-0.31c-0.65-0.2-1.297-0.408-1.943-0.616
						c-1.699-0.55-2.781-2.124-2.783-3.82c0-0.412,0.065-0.832,0.198-1.245c0.683-2.112,2.952-3.262,5.062-2.583
						c10.868,3.521,22.187,5.893,33.646,7.05c56.914,5.775,110.017-18.909,143.087-60.786c18.397-23.29,30.594-51.903,33.799-83.559
						c0.563-5.551,0.842-11.09,0.84-16.594c-0.004-37.041-12.642-72.657-36.378-101.742c-27.263-33.41-65.906-54.204-108.806-58.549
						c-88.603-8.966-167.916,55.785-176.886,144.345c-0.553,5.46-0.828,10.929-0.826,16.381
						c0.004,23.628,5.178,46.993,15.233,68.399c0.259,0.553,0.383,1.134,0.381,1.708c0,1.508-0.854,2.956-2.311,3.639
						c-2.013,0.938-4.405,0.086-5.348-1.931c-10.556-22.474-15.99-47.004-15.994-71.81c-0.002-5.723,0.287-11.462,0.865-17.194
						c9.417-92.98,92.749-160.951,185.695-151.537c45.04,4.562,85.604,26.391,114.225,61.466
						c24.919,30.533,38.186,67.924,38.191,106.81c0,5.779-0.293,11.592-0.881,17.417c-4.564,45.042-26.392,85.608-61.464,114.229
						C2914.407,2418.385,2877.004,2431.65,2838.11,2431.65z"/>
				</g>
			</g>
			<g>
				<g style="opacity:0.3;">
					<path style="fill:#BDD0FB;" d="M2104.312,2582.386c-2.685,0-5.158-1.751-5.952-4.461c-1.485-5.055-2.837-10.226-4.016-15.366
						c-0.767-3.34,1.318-6.667,4.661-7.438c3.343-0.781,6.67,1.322,7.438,4.661c1.124,4.898,2.412,9.826,3.828,14.651
						c0.967,3.285-0.918,6.734-4.207,7.704C2105.479,2582.307,2104.891,2582.386,2104.312,2582.386z"/>
					<path style="fill:#BDD0FB;" d="M2095.126,2535.532c-3.146,0-5.843-2.382-6.167-5.576c-0.922-9.026-1.389-18.203-1.389-27.271
						c0-1.909,0.022-3.825,0.061-5.746c0.076-3.431,3.094-6.019,6.337-6.08c3.427,0.073,6.146,2.91,6.076,6.334
						c-0.039,1.837-0.061,3.668-0.061,5.492c0,8.65,0.446,17.402,1.322,26.009c0.349,3.412-2.133,6.456-5.543,6.807
						C2095.548,2535.519,2095.335,2535.532,2095.126,2535.532z M2096.49,2471.099c-0.294,0-0.594-0.018-0.891-0.06
						c-3.395-0.491-5.75-3.637-5.262-7.031c1.564-10.887,3.819-21.773,6.701-32.35c0.9-3.31,4.328-5.249,7.62-4.358
						c3.309,0.903,5.258,4.31,4.358,7.619c-2.749,10.093-4.898,20.476-6.392,30.859
						C2102.178,2468.869,2099.527,2471.099,2096.49,2471.099z M2113.438,2408.921c-0.788,0-1.588-0.152-2.361-0.467
						c-3.17-1.303-4.679-4.934-3.376-8.104c4.182-10.153,9.043-20.161,14.457-29.731c1.688-2.989,5.465-4.037,8.459-2.346
						c2.982,1.685,4.034,5.474,2.349,8.456c-5.161,9.129-9.798,18.664-13.783,28.349
						C2118.193,2407.473,2115.877,2408.921,2113.438,2408.921z M2145.154,2352.811c-1.285,0-2.579-0.4-3.691-1.218
						c-2.752-2.043-3.331-5.934-1.289-8.686c6.556-8.837,13.714-17.341,21.285-25.282c2.367-2.479,6.298-2.564,8.774-0.206
						c2.482,2.364,2.576,6.291,0.209,8.776c-7.216,7.565-14.047,15.681-20.297,24.106
						C2148.927,2351.944,2147.054,2352.811,2145.154,2352.811z M2189.611,2306.15c-1.794,0-3.576-0.776-4.804-2.273
						c-2.172-2.648-1.785-6.558,0.864-8.734c8.499-6.965,17.505-13.475,26.773-19.342c2.897-1.843,6.731-0.976,8.565,1.922
						c1.833,2.897,0.973,6.734-1.922,8.564c-8.844,5.601-17.436,11.808-25.542,18.457
						C2192.39,2305.689,2190.996,2306.15,2189.611,2306.15z M2244.04,2271.697c-2.324,0-4.555-1.316-5.616-3.558
						c-1.464-3.097-0.136-6.795,2.961-8.261c9.935-4.692,20.257-8.807,30.677-12.226c3.27-1.061,6.764,0.709,7.834,3.964
						c1.07,3.255-0.706,6.764-3.961,7.831c-9.938,3.261-19.775,7.183-29.246,11.656
						C2245.831,2271.509,2244.928,2271.697,2244.04,2271.697z M2305.223,2251.603c-2.909,0-5.507-2.054-6.085-5.012
						c-0.658-3.364,1.536-6.625,4.9-7.286c10.747-2.103,21.767-3.558,32.756-4.328c3.431-0.182,6.389,2.346,6.625,5.764
						c0.24,3.419-2.34,6.383-5.758,6.625c-10.483,0.728-20.993,2.116-31.24,4.122
						C2306.018,2251.567,2305.617,2251.603,2305.223,2251.603z M2401.591,2250.815c-0.358,0-0.724-0.03-1.091-0.097
						c-8.91-1.582-18.063-2.704-27.207-3.334c-1.385-0.103-2.745-0.188-4.103-0.255c-3.425-0.182-6.055-3.097-5.877-6.521
						c0.173-3.431,3.119-6.159,6.519-5.88c1.449,0.079,2.894,0.164,4.346,0.272c9.553,0.661,19.148,1.837,28.491,3.498
						c3.377,0.6,5.625,3.819,5.025,7.195C2407.161,2248.7,2404.546,2250.815,2401.591,2250.815z"/>
				</g>
				<g style="opacity:0.3;">
					<path style="fill:#BDD0FB;" d="M2359.303,2770.49c-3.388,0-6.158-2.728-6.204-6.128c-0.045-3.425,2.698-6.243,6.125-6.286
						c10.319-0.133,20.718-0.897,30.907-2.273c3.38-0.425,6.525,1.921,6.983,5.322c0.458,3.4-1.927,6.522-5.322,6.983
						c-10.687,1.436-21.588,2.242-32.404,2.382C2359.361,2770.49,2359.33,2770.49,2359.303,2770.49z M2327.584,2768.993
						c-0.225,0-0.446-0.012-0.673-0.037c-10.744-1.151-21.527-2.97-32.05-5.401c-3.34-0.776-5.422-4.103-4.649-7.443
						c0.77-3.346,4.122-5.413,7.443-4.655c10.041,2.321,20.33,4.055,30.583,5.158c3.407,0.364,5.874,3.425,5.507,6.831
						C2333.403,2766.635,2330.712,2768.993,2327.584,2768.993z M2422.109,2762.004c-2.752,0-5.267-1.843-6.001-4.631
						c-0.87-3.31,1.109-6.704,4.425-7.577c9.986-2.631,19.894-5.885,29.452-9.687c3.197-1.254,6.794,0.291,8.058,3.479
						c1.267,3.182-0.29,6.795-3.476,8.062c-10.02,3.982-20.409,7.395-30.876,10.147
						C2423.16,2761.938,2422.63,2762.004,2422.109,2762.004z M2265.809,2754.676c-0.706,0-1.424-0.121-2.127-0.375
						c-10.159-3.704-20.191-8.074-29.813-12.99c-3.054-1.558-4.264-5.298-2.706-8.353c1.558-3.042,5.298-4.255,8.35-2.703
						c9.177,4.685,18.739,8.849,28.425,12.384c3.219,1.176,4.879,4.74,3.704,7.958
						C2270.722,2753.112,2268.343,2754.676,2265.809,2754.676z M2480.995,2738.588c-2.197,0-4.328-1.169-5.452-3.23
						c-1.646-3.012-0.537-6.782,2.47-8.425c9.041-4.934,17.872-10.474,26.252-16.475c2.791-2,6.667-1.352,8.662,1.437
						c1.994,2.788,1.352,6.667-1.437,8.662c-8.789,6.286-18.048,12.098-27.525,17.275
						C2483.02,2738.346,2481.998,2738.588,2480.995,2738.588z M2532.548,2701.729c-1.682,0-3.355-0.679-4.579-2.013
						c-2.316-2.528-2.146-6.455,0.382-8.771c7.613-6.977,14.869-14.475,21.563-22.282c2.234-2.606,6.156-2.904,8.753-0.673
						c2.603,2.231,2.903,6.146,0.673,8.747c-7.019,8.189-14.623,16.05-22.6,23.361
						C2535.548,2701.19,2534.045,2701.729,2532.548,2701.729z M2573.789,2653.577c-1.182,0-2.376-0.333-3.434-1.042
						c-2.855-1.897-3.628-5.752-1.728-8.607c5.725-8.589,10.968-17.609,15.584-26.804c1.539-3.055,5.27-4.298,8.331-2.758
						c3.064,1.539,4.3,5.267,2.761,8.334c-4.844,9.638-10.341,19.1-16.342,28.113
						C2577.765,2652.608,2575.795,2653.577,2573.789,2653.577z"/>
					<path style="fill:#BDD0FB;" d="M2209.087,2725.696c-1.197,0-2.406-0.346-3.473-1.067c-4.401-2.976-8.731-6.098-12.877-9.273
						c-2.719-2.086-3.237-5.983-1.152-8.705c2.089-2.709,5.98-3.23,8.705-1.151c3.952,3.031,8.086,6.007,12.283,8.85
						c2.84,1.921,3.582,5.782,1.661,8.619C2213.032,2724.739,2211.078,2725.696,2209.087,2725.696z"/>
				</g>
				<g>
					<path style="fill:#BDD0FB;" d="M2214.247,2645.513c0.847,1.038,2.261,1.426,3.519,0.963l35.902-13.203
						c14.153,10.9,30.146,19.622,47.532,25.598l8.757,37.211c0.307,1.305,1.408,2.272,2.742,2.407l45.65,4.625
						c1.334,0.135,2.607-0.592,3.17-1.808l16.041-34.7c18.231-2.368,35.648-7.705,51.7-15.546l32.525,20.134
						c1.14,0.705,2.603,0.61,3.642-0.238l35.549-29.01c1.039-0.848,1.426-2.262,0.963-3.52l-13.203-35.902
						c10.901-14.153,19.623-30.147,25.598-47.533l37.212-8.756c1.305-0.307,2.272-1.408,2.407-2.742l4.624-45.651
						c0.135-1.334-0.591-2.607-1.808-3.169l-34.7-16.041c-2.367-18.231-7.705-35.649-15.546-51.7l20.135-32.527
						c0.705-1.139,0.61-2.602-0.237-3.64l-29.01-35.55c-0.847-1.039-2.261-1.425-3.519-0.963l-35.902,13.203
						c-14.152-10.901-30.146-19.622-47.532-25.598l-8.757-37.213c-0.307-1.305-1.408-2.272-2.742-2.407l-45.651-4.624
						c-1.334-0.135-2.606,0.591-3.169,1.808l-16.041,34.7c-18.231,2.367-35.649,7.705-51.701,15.546l-32.525-20.134
						c-1.14-0.706-2.603-0.611-3.642,0.237l-35.549,29.01c-1.038,0.848-1.426,2.261-0.963,3.52l13.202,35.902
						c-10.9,14.153-19.622,30.147-25.597,47.533l-37.213,8.756c-1.304,0.307-2.272,1.408-2.406,2.743l-4.625,45.65
						c-0.135,1.334,0.591,2.607,1.808,3.17l34.7,16.041c2.368,18.231,7.705,35.648,15.545,51.699l-20.134,32.526
						c-0.706,1.14-0.61,2.602,0.237,3.642L2214.247,2645.513z"/>
					
						<linearGradient id="SVGID_00000085955399285470200630000006276717882011202434_" gradientUnits="userSpaceOnUse" x1="2308.8757" y1="2500.3699" x2="2402.7878" y2="2500.3699">
						<stop  offset="0" style="stop-color:#DAE3FE"/>
						<stop  offset="1" style="stop-color:#E9EFFD"/>
					</linearGradient>
					<path style="fill:url(#SVGID_00000085955399285470200630000006276717882011202434_);" d="M2355.73,2547.321
						c-10.013,0-19.724-3.194-27.906-9.274c-10.065-7.48-16.615-18.433-18.442-30.841c-3.776-25.604,13.987-49.51,39.599-53.292
						c25.652-3.734,49.522,13.996,53.295,39.605c1.83,12.408-1.282,24.785-8.762,34.847c-7.479,10.068-18.432,16.62-30.843,18.445
						C2360.352,2547.152,2358.031,2547.321,2355.73,2547.321z M2355.848,2465.825c-1.67,0-3.358,0.122-5.059,0.37
						c-18.838,2.782-31.904,20.366-29.128,39.205c1.346,9.122,6.162,17.184,13.565,22.682c7.407,5.504,16.508,7.783,25.637,6.449
						l0,0c9.125-1.345,17.185-6.165,22.685-13.566c5.504-7.407,7.792-16.511,6.447-25.64
						C2387.47,2478.191,2372.684,2465.825,2355.848,2465.825z"/>
					
						<linearGradient id="SVGID_00000035510768997838597400000017281845461280771730_" gradientUnits="userSpaceOnUse" x1="2239.6028" y1="2499.6804" x2="2473.4668" y2="2499.6804">
						<stop  offset="0" style="stop-color:#DAE3FE"/>
						<stop  offset="1" style="stop-color:#E9EFFD"/>
					</linearGradient>
					<path style="fill:url(#SVGID_00000035510768997838597400000017281845461280771730_);" d="M2356.621,2616.615
						c-3.928,0-7.886-0.2-11.874-0.6c-7.919-0.8-15.766-2.406-23.339-4.782c-0.34-0.109-0.679-0.219-1.019-0.328
						c-2.625-0.849-4.295-3.279-4.298-5.898c0-0.636,0.1-1.285,0.306-1.921c1.055-3.261,4.558-5.031,7.816-3.989
						c7.05,2.285,14.377,3.818,21.779,4.564h0.003c0.406,0.042,0.815,0.078,1.219,0.115c17.532,1.606,34.801-1.219,50.552-8.007
						c8.549-3.686,16.654-8.547,24.106-14.517c0.061-0.048,0.121-0.097,0.182-0.145c0.185-0.152,0.37-0.297,0.552-0.449
						c21.627-17.651,35.089-42.666,37.902-70.439c0.367-3.594,0.545-7.177,0.545-10.741c-0.003-23.979-8.186-47.036-23.551-65.869
						c-17.651-21.627-42.667-35.084-70.437-37.896c-27.755-2.801-54.98,5.358-76.61,23.003
						c-21.627,17.65-35.089,42.666-37.902,70.439c-0.361,3.533-0.536,7.074-0.536,10.601c0.003,15.299,3.352,30.423,9.862,44.279
						c0.4,0.854,0.591,1.751,0.588,2.637c0,2.327-1.318,4.564-3.567,5.619c-3.106,1.449-6.798,0.127-8.259-2.982
						c-7.282-15.505-11.031-32.428-11.038-49.54c0-3.952,0.197-7.91,0.597-11.863c3.149-31.077,18.208-59.062,42.408-78.81
						c24.197-19.742,54.619-28.907,85.705-25.737c31.073,3.146,59.059,18.202,78.804,42.405
						c17.193,21.064,26.346,46.861,26.349,73.689c0,3.982-0.2,7.995-0.606,12.013
						C2466.763,2571.627,2415.835,2616.615,2356.621,2616.615z"/>
				</g>
			</g>
		</g>
		<g>
			
				<linearGradient id="SVGID_00000073690503145439368250000010001491451220155266_" gradientUnits="userSpaceOnUse" x1="-3047.8257" y1="3198.085" x2="-2879.613" y2="3198.085" gradientTransform="matrix(-1 0 0 1 -1026.0966 0)">
				<stop  offset="0" style="stop-color:#4F52FF"/>
				<stop  offset="1" style="stop-color:#4042E2"/>
			</linearGradient>
			<path style="fill:url(#SVGID_00000073690503145439368250000010001491451220155266_);" d="M1858.266,3189.949
				c28.817,2.491,78.83,6.537,118.258,8.272c23.701,1.043,37.346-1.278,45.205-4.424c-0.013,0.886-0.038,1.723-0.073,2.5
				c-0.186,4.148-3.558,7.468-7.748,7.702c-74.501,4.158-133.752,1.439-154.846,0.156c-4.362-0.266-6.961-5.006-4.73-8.724
				C1855.448,3193.572,1856.799,3191.75,1858.266,3189.949z"/>
			
				<linearGradient id="SVGID_00000052799031993611310170000007004913763921933748_" gradientUnits="userSpaceOnUse" x1="-3047.8354" y1="3165.1174" x2="-2884.363" y2="3165.1174" gradientTransform="matrix(-1 0 0 1 -1026.0966 0)">
				<stop  offset="0" style="stop-color:#09005D"/>
				<stop  offset="1" style="stop-color:#1A0F91"/>
			</linearGradient>
			<path style="fill:url(#SVGID_00000052799031993611310170000007004913763921933748_);" d="M1976.525,3198.221
				c-39.428-1.735-89.441-5.781-118.258-8.272c28.332-34.76,118.258-58.188,118.258-58.188h25.398
				c17.469,25.18,19.998,49.154,19.807,62.037C2013.871,3196.944,2000.226,3199.264,1976.525,3198.221z"/>
			
				<linearGradient id="SVGID_00000086653850361498833500000015257004684881152156_" gradientUnits="userSpaceOnUse" x1="-3032.2959" y1="3119.0901" x2="-2984.9138" y2="3119.0901" gradientTransform="matrix(-1 0 0 1 -1026.0966 0)">
				<stop  offset="0" style="stop-color:#FEBBBA"/>
				<stop  offset="1" style="stop-color:#FF928E"/>
			</linearGradient>
			<path style="fill:url(#SVGID_00000086653850361498833500000015257004684881152156_);" d="M2006.199,3090.297l-2.377,47.032
				c-0.257,5.093-4.07,9.373-9.171,10.102c-5.075,0.726-11.872,0.818-19.079-1.581c-4.434-1.476-7.726-5.212-8.543-9.769
				l-8.213-45.785H2006.199z"/>
			<g>
				
					<linearGradient id="SVGID_00000066490225478943895890000007876475937677511074_" gradientUnits="userSpaceOnUse" x1="-3348.0632" y1="3239.7964" x2="-3283.6013" y2="3239.7964" gradientTransform="matrix(-1 0 0 1 -1026.0966 0)">
					<stop  offset="0" style="stop-color:#4F52FF"/>
					<stop  offset="1" style="stop-color:#4042E2"/>
				</linearGradient>
				<path style="fill:url(#SVGID_00000066490225478943895890000007876475937677511074_);" d="M2300.976,3244.205
					c12.497-2.253,18.151-10.643,20.521-19.612c0.016,0.081,0.031,0.161,0.047,0.241c1.838,9.462-2.424,19.268-10.945,23.932
					c-10.3,5.637-21.56,6.597-30.303,6.132c-9.38-0.5-17.989-5.516-22.721-13.544l-0.071-0.12
					C2266.92,3247.253,2280.135,3247.961,2300.976,3244.205z"/>
				
					<linearGradient id="SVGID_00000117639437797598087640000015171844991047418513_" gradientUnits="userSpaceOnUse" x1="-3347.5942" y1="3175.6489" x2="-3252.9768" y2="3175.6489" gradientTransform="matrix(-1 0 0 1 -1026.0966 0)">
					<stop  offset="0" style="stop-color:#09005D"/>
					<stop  offset="1" style="stop-color:#1A0F91"/>
				</linearGradient>
				<path style="fill:url(#SVGID_00000117639437797598087640000015171844991047418513_);" d="M2242.056,3104.788h20.945
					c31.904-0.843,51.938,86.125,58.496,119.804c-2.371,8.97-8.025,17.36-20.521,19.612c-20.841,3.756-34.057,3.048-43.471-2.973
					c-17.236-29.314-25.781-72.247-29.889-97.303C2222.944,3115.433,2242.056,3104.788,2242.056,3104.788z"/>
			</g>
			
				<linearGradient id="SVGID_00000150101021322065714420000009297380203839744654_" gradientUnits="userSpaceOnUse" x1="-3298.4136" y1="3094.3823" x2="-3241.7871" y2="3094.3823" gradientTransform="matrix(-1 0 0 1 -1026.0966 0)">
				<stop  offset="0" style="stop-color:#FEBBBA"/>
				<stop  offset="1" style="stop-color:#FF928E"/>
			</linearGradient>
			<path style="fill:url(#SVGID_00000150101021322065714420000009297380203839744654_);" d="M2260.309,3061.133l11.631,46.259
				c1.426,5.672-1.289,11.538-6.532,14.229c-6.506,3.339-15.667,6.848-24.085,5.832c-3.959-0.478-7.248-3.266-8.556-6.994
				l-17.075-48.669L2260.309,3061.133z"/>
			
				<linearGradient id="SVGID_00000062186855135660418220000002514405644313284995_" gradientUnits="userSpaceOnUse" x1="1994.866" y1="2233.7366" x2="2086.7329" y2="2975.4775">
				<stop  offset="0" style="stop-color:#09005D"/>
				<stop  offset="1" style="stop-color:#1A0F91"/>
			</linearGradient>
			<path style="fill:url(#SVGID_00000062186855135660418220000002514405644313284995_);" d="M1851.172,2451.88
				c0,0,103.937,649.693,102.225,653.264c0,0,28.707,13.047,60.001,1.663c0,0-9.399-347.308-31.422-480.473
				c0,0,177.385,310.425,233.715,465.103c0,0,29.38-3.503,53.7-19.509c0,0-190.994-558.75-241.949-633.173L1851.172,2451.88z"/>
			
				<linearGradient id="SVGID_00000119839025008317192550000006725311716671743921_" gradientUnits="userSpaceOnUse" x1="2146.9063" y1="2340.7424" x2="2000.5989" y2="2517.6724">
				<stop  offset="0" style="stop-color:#09005D"/>
				<stop  offset="1" style="stop-color:#1A0F91"/>
			</linearGradient>
			<path style="fill:url(#SVGID_00000119839025008317192550000006725311716671743921_);" d="M1977.826,2622.95
				c0.557,0,1.12-0.149,1.625-0.467c1.438-0.902,1.873-2.795,0.974-4.23l-38.841-62.04c-0.449-0.715-1.17-1.217-1.995-1.383
				l-28.584-5.753c-1.672-0.33-3.282,0.747-3.618,2.404c-0.333,1.663,0.744,3.282,2.404,3.617l27.288,5.49l38.141,60.919
				C1975.804,2622.44,1976.804,2622.95,1977.826,2622.95z"/>
			
				<linearGradient id="SVGID_00000141441840743719134040000003769300341174111640_" gradientUnits="userSpaceOnUse" x1="-2519.5435" y1="1901.6074" x2="-2743.8157" y2="2193.3794" gradientTransform="matrix(-1 0 0 1 -1026.0966 0)">
				<stop  offset="0" style="stop-color:#FEBBBA"/>
				<stop  offset="1" style="stop-color:#FF928E"/>
			</linearGradient>
			<path style="fill:url(#SVGID_00000141441840743719134040000003769300341174111640_);" d="M1374.211,1815.689
				c0,0,70.135,15.469,112.793,35.164c8.472,3.912,15.23,10.751,19.079,19.182c12.758,27.947,50.928,98.027,124.953,131.471
				c-10.66,14.149-27.825,43.581-35.302,93.05c-44.461-33.092-82.843-88.355-101.271-178.989c0,0-14.032,7.628-31.537-0.873
				c-9.248-4.492-19.927-10.863-27.943-15.873c-7.987-4.993-13.936-12.753-16.246-21.818c-3.051-11.969-1.254-22.493-1.254-33.784
				l-36.051-11.169C1381.431,1832.05,1370.594,1827.959,1374.211,1815.689z"/>
			
				<linearGradient id="SVGID_00000044870604973601601190000006042327570539236517_" gradientUnits="userSpaceOnUse" x1="-2785.5952" y1="1969.9546" x2="-3534.3555" y2="2857.3743" gradientTransform="matrix(-1 0 0 1 -1026.0966 0)">
				<stop  offset="0" style="stop-color:#4F52FF"/>
				<stop  offset="1" style="stop-color:#4042E2"/>
			</linearGradient>
			<path style="fill:url(#SVGID_00000044870604973601601190000006042327570539236517_);" d="M1595.734,2094.555
				c7.477-49.469,24.642-78.9,35.302-93.05c45.986,20.776,105.804,27.418,181.977,1.023c7.021-2.433,14.346-3.858,21.772-4.293
				c40.551-2.378,174.178-6.716,284.751,29.815c23.271,7.688,42.119,24.891,51.833,47.182
				c29.911,68.642,78.337,224.966-56.099,303.886c-10.329-25.643-22.25-46.255-32.444-61.399
				c21.65-36.517,28.062-86.394-10.357-151.344c-28.014,75.643-41.156,186.015-43.902,234.861
				c-0.904,16.082,1.917,32.133,8.227,46.981l0.688,1.62c1.35,3.177-0.508,6.828-3.905,7.591
				c-75.682,17-154.397,12.382-177.915,10.439c-4.198-0.347-7.686-3.351-8.649-7.409c-36.802-155.069-36.886-260.847-27.876-327.715
				C1784.713,2140.441,1679.441,2156.857,1595.734,2094.555z"/>
			
				<linearGradient id="SVGID_00000060012141775678940340000017965137061601887117_" gradientUnits="userSpaceOnUse" x1="2470.6335" y1="1610.366" x2="1895.6119" y2="2039.08">
				<stop  offset="0" style="stop-color:#4F52FF"/>
				<stop  offset="1" style="stop-color:#4042E2"/>
			</linearGradient>
			<path style="fill:url(#SVGID_00000060012141775678940340000017965137061601887117_);" d="M1818.989,2136.914
				c1.517,0,2.836-1.123,3.04-2.667c8.644-65.29,26.244-93.783,26.419-94.063c0.904-1.432,0.479-3.329-0.954-4.236
				c-1.427-0.899-3.323-0.481-4.23,0.948c-0.753,1.182-18.475,29.713-27.321,96.546c-0.222,1.68,0.96,3.224,2.64,3.445
				C1818.721,2136.905,1818.855,2136.914,1818.989,2136.914z"/>
			
				<linearGradient id="SVGID_00000176030119915692340120000002405184280585311676_" gradientUnits="userSpaceOnUse" x1="-3019.4409" y1="2090.1838" x2="-2994.9053" y2="1961.3713" gradientTransform="matrix(-1 0 0 1 -1026.0966 0)">
				<stop  offset="0" style="stop-color:#FEBBBA"/>
				<stop  offset="1" style="stop-color:#FF928E"/>
			</linearGradient>
			<path style="fill:url(#SVGID_00000176030119915692340120000002405184280585311676_);" d="M2005.76,1907.902
				c0,0,7.656,80.952,14.397,104.897c1.023,3.633-0.555,7.464-3.856,9.35c-11.441,6.537-38.882,17.2-76.417-1.195
				c-6.081-2.98-9.737-9.319-9.453-16.027l3.307-78.226L2005.76,1907.902z"/>
			<g>
				
					<linearGradient id="SVGID_00000046319928384753381020000012973732988727667118_" gradientUnits="userSpaceOnUse" x1="-2953.0508" y1="1853.8536" x2="-3093.0422" y2="1960.9684" gradientTransform="matrix(-1 0 0 1 -1026.0966 0)">
					<stop  offset="0" style="stop-color:#FEBBBA"/>
					<stop  offset="1" style="stop-color:#FF928E"/>
				</linearGradient>
				<path style="fill:url(#SVGID_00000046319928384753381020000012973732988727667118_);" d="M1932.088,1804.338
					c0,0-24.488,56.254-26.133,85.779c-1.645,29.526-8.007,48.684,26.133,54.63s62.899-11.061,78.48-40.472
					c0,0,24.412-45.319,18.935-63.878C2024.027,1821.837,1932.088,1804.338,1932.088,1804.338z"/>
				
					<linearGradient id="SVGID_00000103223319743844825840000003444326569837152688_" gradientUnits="userSpaceOnUse" x1="-3051.5986" y1="1769.0424" x2="-2921.2188" y2="1936.906" gradientTransform="matrix(-1 0 0 1 -1026.0966 0)">
					<stop  offset="0" style="stop-color:#09005D"/>
					<stop  offset="1" style="stop-color:#1A0F91"/>
				</linearGradient>
				<path style="fill:url(#SVGID_00000103223319743844825840000003444326569837152688_);" d="M1998.901,1883.129l-1.943-0.857
					c-2.474-1.091-3.533-4.036-2.29-6.437c4.814-9.302,14.199-30.617,2.075-35.589c-15.625-6.408-77.517-19.03-90.87-40.991
					c-12.834-21.107-1.463-48.352,15.627-56.101c1.144-0.519,2.492-0.107,3.079,1.003l1.424,2.695
					c0.975,1.845,3.699,1.565,4.279-0.439c0.557-1.924,3.116-2.297,4.177-0.599c4.105,6.57,15.186,17.222,44.821,22.691
					c42.117,7.773,69.962,24.817,70.655,53.92c0.044,1.849,2.011,2.877,3.59,1.915c3.11-1.895,8.086-2.784,14.737,2.808
					c11.566,9.726,6.833,34.955-18.523,55.708c-1.204,0.986-1.195,2.866,0.11,3.716c4.597,2.992,11.449,10.112-6.306,19.604
					c-18.366,9.817-32.08,9.012-37.361,8.141c-1.314-0.217-2.161-1.489-1.874-2.789l5.637-25.579
					c0.319-1.448-0.783-2.819-2.266-2.819H1998.901z"/>
				
					<linearGradient id="SVGID_00000125574484372592438000000005958451704398122647_" gradientUnits="userSpaceOnUse" x1="-2970.4153" y1="1831.1598" x2="-3110.4065" y2="1938.2744" gradientTransform="matrix(-1 0 0 1 -1026.0966 0)">
					<stop  offset="0" style="stop-color:#FEBBBA"/>
					<stop  offset="1" style="stop-color:#FF928E"/>
				</linearGradient>
				<path style="fill:url(#SVGID_00000125574484372592438000000005958451704398122647_);" d="M1997.841,1888.527
					c0,0,9.342-35.934,25.453-25.859c16.111,10.075-8.36,40.262-21.313,41.607L1997.841,1888.527z"/>
			</g>
			<path style="fill:#F8A570;" d="M1475.758,1907.207c0.68,0,1.365-0.225,1.934-0.689c1.316-1.068,1.514-3.002,0.443-4.318
				c-2.652-3.265-26.189-32.041-35.256-37.161c-3.299-1.864-5.266-3.79-5.683-5.566c-0.201-0.849-0.067-1.803,0.411-2.888
				l27.653,5.543l15.669,13.443c1.281,1.106,3.224,0.96,4.326-0.33c1.106-1.287,0.957-3.224-0.33-4.329l-16.276-13.968
				c-0.4-0.341-0.878-0.575-1.395-0.68l-30.614-6.135c-1.228-0.248-2.459,0.268-3.151,1.295c-2.243,3.329-2.987,6.424-2.27,9.458
				c0.846,3.585,3.67,6.695,8.638,9.502c6.821,3.854,26.504,27.07,33.514,35.691
				C1473.979,1906.822,1474.866,1907.207,1475.758,1907.207z"/>
			
				<linearGradient id="SVGID_00000084524274082562574070000014833663862155187882_" gradientUnits="userSpaceOnUse" x1="-2888.3384" y1="2181.6919" x2="-2986.3215" y2="2328.6665" gradientTransform="matrix(-1 0 0 1 -1026.0966 0)">
				<stop  offset="0" style="stop-color:#FEBBBA"/>
				<stop  offset="1" style="stop-color:#FF928E"/>
			</linearGradient>
			<path style="fill:url(#SVGID_00000084524274082562574070000014833663862155187882_);" d="M1999.03,2418.024l-108.243,1.339
				l37.883-35.66c9.416-8.863,23.788-10.299,34.658-3.249c6.364,4.128,13.266,9.731,19.245,17.151c0,0,67.521-24.676,100.254-79.886
				c10.194,15.144,22.115,35.757,32.444,61.399C2085.928,2396.345,2047.891,2409.89,1999.03,2418.024z"/>
			<g>
				
					<linearGradient id="SVGID_00000166636282537874205620000015659520488350271642_" gradientUnits="userSpaceOnUse" x1="558.7005" y1="2444.6833" x2="337.3423" y2="2505.3518" gradientTransform="matrix(0.9988 -0.0494 0.0494 0.9988 1355.1704 -55.0328)">
					<stop  offset="0" style="stop-color:#09005D"/>
					<stop  offset="1" style="stop-color:#1A0F91"/>
				</linearGradient>
				<path style="fill:url(#SVGID_00000166636282537874205620000015659520488350271642_);" d="M1987.367,2431.984
					c-0.21,0.01-0.42,0.016-0.632,0.014l-274.762-0.297c-6.792-0.006-12.292-5.459-12.286-12.18
					c0.007-6.723,5.539-12.276,12.313-12.156l274.762,0.296c6.792,0.006,12.292,5.46,12.285,12.18
					C1999.04,2426.354,1993.865,2431.667,1987.367,2431.984z"/>
				
					<linearGradient id="SVGID_00000009550475242604529250000008875320854962722741_" gradientUnits="userSpaceOnUse" x1="337.1459" y1="2217.8647" x2="181.0057" y2="2382.8953" gradientTransform="matrix(1 0 0 1 1396.6394 0)">
					<stop  offset="0" style="stop-color:#09005D"/>
					<stop  offset="1" style="stop-color:#1A0F91"/>
				</linearGradient>
				<path style="fill:url(#SVGID_00000009550475242604529250000008875320854962722741_);" d="M1464.974,2185.153h228.824
					c16.88,0,32.245,9.638,39.445,24.745l105.785,221.941h-284.367c-10.878,0-20.652-6.576-24.65-16.586l-82.032-205.374
					C1443.24,2198.012,1452.079,2185.153,1464.974,2185.153z"/>
				
					<linearGradient id="SVGID_00000108306264310894912710000015253357339309117606_" gradientUnits="userSpaceOnUse" x1="242.4658" y1="2259.1128" x2="171.8857" y2="2365.3982" gradientTransform="matrix(1 0 0 1 1396.6394 0)">
					<stop  offset="0" style="stop-color:#4F52FF"/>
					<stop  offset="1" style="stop-color:#4042E2"/>
				</linearGradient>
				<path style="fill:url(#SVGID_00000108306264310894912710000015253357339309117606_);" d="M1626.183,2298.949
					c4.959,15.243,1.295,30.047-8.182,33.065c-9.477,3.018-21.18-6.892-26.139-22.135c-4.959-15.243-1.296-30.047,8.182-33.065
					C1609.521,2273.795,1621.224,2283.706,1626.183,2298.949z"/>
			</g>
		</g>
	</g>
</g>
</svg>
